<?xml version="1.0" encoding="utf-8"?>
<!-- Generator: Adobe Illustrator 27.5.0, SVG Export Plug-In . SVG Version: 6.00 Build 0)  -->
<svg version="1.1" id="Layer_1" xmlns="http://www.w3.org/2000/svg" xmlns:xlink="http://www.w3.org/1999/xlink" x="0px" y="0px"
	 viewBox="0 0 330.48 307.11" style="enable-background:new 0 0 330.48 307.11;" xml:space="preserve">
<style type="text/css">
	.st0{fill:#2072B9;}
	.st1{fill:#3BA9E0;}
</style>
<g>
	<path class="st0" d="M328.24,216.57c-1.57-2.19-3.93-5.56-7.51-9.23c-7.04-7.41-19.29-17-36.74-22.66
		c-17.27-6-39.39-7.75-61.96-3.39c-11.22,2.26-22.71,5.56-33.62,10.53c-10.81,4.75-21.92,11.39-30.98,17.81
		c-4.65,3.08-9.48,6.67-13.95,9.3c-4.53,2.43-8.58,5.39-13.38,7.56c-9.18,4.9-18.58,8.74-27.91,11.71
		c-9.4,2.43-18.62,4.82-27.53,5.17c-8.93,0.72-17.42,0.22-25.23-0.96c-3.88-0.79-7.65-1.47-11.1-2.59c-3.59-0.84-6.89-1.97-9.91-3.3
		c-3.15-1.08-5.88-2.54-8.49-3.82c-2.64-1.23-5.04-2.51-7.06-3.86c-4.19-2.49-7.41-4.72-9.5-6.35C1.18,220.9,0,220.04,0,220.04
		s0.79,1.21,2.29,3.45c1.53,2.24,3.74,5.63,7.33,9.3c1.67,2,3.69,4.01,6.05,6.06c2.29,2.19,4.92,4.33,7.97,6.33
		c5.85,4.46,13.29,8.34,21.92,11.54c7.48,2.7,15.97,4.85,25.02,5.66c19.2,26.41,51.53,44.73,94.66,44.73
		c68.02,0,109.26-45.52,114.28-96.56c-39.55-7.87-89.28,9.05-95.26,12.4c4.87-3,9.72-5.73,14.84-8.32
		c9.26-4.51,18.67-8.47,28.15-11.08c9.45-2.48,18.8-4.41,27.81-5.04c8.98-0.61,17.59-0.4,25.47,0.64
		c15.8,2.12,28.57,7.41,37.03,12.25c4.19,2.48,7.45,4.55,9.6,6.17c2.17,1.63,3.34,2.48,3.34,2.48S329.7,218.83,328.24,216.57z"/>
	<path class="st1" d="M210.45,71.58C190.66,48.16,172.5,25.05,165.22,0C146.73,63.51,58.37,114.62,50.91,189.33
		c-0.34,3.39-0.44,6.75-0.44,10.09c5.73,0.94,11.42,1.75,16.93,1.89c7.26,0.39,14.22,0.1,20.62-0.54c3.15-0.39,6.25-0.76,9.08-1.35
		c2.93-0.47,5.63-1.08,8.1-1.79c2.58-0.59,4.8-1.4,6.92-2.07c2.19-0.62,4.11-1.33,5.76-2.07c3.45-1.31,6.08-2.54,7.78-3.4
		c1.8-0.84,2.76-1.31,2.76-1.31s-0.64,0.64-1.87,1.85c-1.26,1.2-3.07,3.03-5.98,4.99c-1.36,1.1-3.02,2.16-4.95,3.25
		c-1.85,1.18-4.01,2.34-6.52,3.44c-4.79,2.38-10.87,4.45-17.91,6.18c-7.04,1.67-15.09,3-23.79,3.23c-5.26,0.29-10.75,0.1-16.27-0.29
		c0.84,7.24,2.43,14.35,4.65,21.26c3.54,0.34,7.11,0.62,10.68,0.62c2.41,0,4.88-0.1,7.38-0.29c8.34-0.35,17.17-2.68,25.71-4.89
		c8.64-2.75,17.42-6.42,25.64-10.82c3.13-1.43,5.39-2.85,7.65-4.23c1.89-1.15,3.74-2.27,5.69-3.3c2.36-1.41,5.22-3.37,8.09-5.37
		c1.68-1.16,3.39-2.34,5.05-3.45c10.38-7.34,22.03-14.05,32.55-18.65c10.58-4.8,22.3-8.51,35.76-11.22
		c9.05-1.73,18.18-2.61,27.24-2.61c9.97,0,19.76,1.13,28.89,3.23C265.86,134.4,236.78,102.71,210.45,71.58z"/>
</g>
</svg>
