<svg width="225" height="1024" viewBox="0 0 225 1024" fill="none" xmlns="http://www.w3.org/2000/svg">
<path fill-rule="evenodd" clip-rule="evenodd" d="M155.628 1024L132.504 981.333C109.38 938.667 63.1317 853.333 74.6938 768C86.2558 682.667 155.628 597.333 144.066 512C132.504 426.667 40.0077 341.333 11.1027 256C-17.8024 170.667 16.8837 85.3333 34.2267 42.6666L51.5697 -2.47955e-05H225V42.6666C225 85.3333 225 170.667 225 256C225 341.333 225 426.667 225 512C225 597.333 225 682.667 225 768C225 853.333 225 938.667 225 981.333V1024H155.628Z" fill="white"/>
</svg>
